<?xml version="1.0" encoding="UTF-8" standalone="no"?>
<!DOCTYPE svg PUBLIC "-//W3C//DTD SVG 1.1//EN"
 "http://www.w3.org/Graphics/SVG/1.1/DTD/svg11.dtd">
<!-- Generated by graphviz version 2.42.3 (20191010.1750)
 -->
<!-- Title: snakemake_dag Pages: 1 -->
<svg width="256pt" height="332pt"
 viewBox="0.00 0.00 255.50 332.00" xmlns="http://www.w3.org/2000/svg" xmlns:xlink="http://www.w3.org/1999/xlink">
<g id="graph0" class="graph" transform="scale(1 1) rotate(0) translate(4 328)">
<title>snakemake_dag</title>
<polygon fill="white" stroke="transparent" points="-4,4 -4,-328 251.5,-328 251.5,4 -4,4"/>
<!-- 0 -->
<g id="node1" class="node">
<title>0</title>
<path fill="none" stroke="#56a9d8" stroke-width="2" stroke-dasharray="5,2" d="M140,-36C140,-36 110,-36 110,-36 104,-36 98,-30 98,-24 98,-24 98,-12 98,-12 98,-6 104,0 110,0 110,0 140,0 140,0 146,0 152,-6 152,-12 152,-12 152,-24 152,-24 152,-30 146,-36 140,-36"/>
<text text-anchor="middle" x="125" y="-15.5" font-family="sans" font-size="10.00">all</text>
</g>
<!-- 1 -->
<g id="node2" class="node">
<title>1</title>
<path fill="none" stroke="#d8ac56" stroke-width="2" stroke-dasharray="5,2" d="M104,-108C104,-108 70,-108 70,-108 64,-108 58,-102 58,-96 58,-96 58,-84 58,-84 58,-78 64,-72 70,-72 70,-72 104,-72 104,-72 110,-72 116,-78 116,-84 116,-84 116,-96 116,-96 116,-102 110,-108 104,-108"/>
<text text-anchor="middle" x="87" y="-87.5" font-family="sans" font-size="10.00">get_cool</text>
</g>
<!-- 1&#45;&gt;0 -->
<g id="edge1" class="edge">
<title>1&#45;&gt;0</title>
<path fill="none" stroke="grey" stroke-width="2" d="M96.39,-71.7C100.76,-63.64 106.06,-53.89 110.9,-44.98"/>
<polygon fill="grey" stroke="grey" stroke-width="2" points="114.02,-46.56 115.71,-36.1 107.87,-43.22 114.02,-46.56"/>
</g>
<!-- 2 -->
<g id="node3" class="node">
<title>2</title>
<path fill="none" stroke="#d8ac56" stroke-width="2" stroke-dasharray="5,2" d="M180,-108C180,-108 146,-108 146,-108 140,-108 134,-102 134,-96 134,-96 134,-84 134,-84 134,-78 140,-72 146,-72 146,-72 180,-72 180,-72 186,-72 192,-78 192,-84 192,-84 192,-96 192,-96 192,-102 186,-108 180,-108"/>
<text text-anchor="middle" x="163" y="-87.5" font-family="sans" font-size="10.00">get_cool</text>
</g>
<!-- 2&#45;&gt;0 -->
<g id="edge2" class="edge">
<title>2&#45;&gt;0</title>
<path fill="none" stroke="grey" stroke-width="2" d="M153.61,-71.7C149.24,-63.64 143.94,-53.89 139.1,-44.98"/>
<polygon fill="grey" stroke="grey" stroke-width="2" points="142.13,-43.22 134.29,-36.1 135.98,-46.56 142.13,-43.22"/>
</g>
<!-- 3 -->
<g id="node4" class="node">
<title>3</title>
<path fill="none" stroke="#afd856" stroke-width="2" stroke-dasharray="5,2" d="M66,-180C66,-180 28,-180 28,-180 22,-180 16,-174 16,-168 16,-168 16,-156 16,-156 16,-150 22,-144 28,-144 28,-144 66,-144 66,-144 72,-144 78,-150 78,-156 78,-156 78,-168 78,-168 78,-174 72,-180 66,-180"/>
<text text-anchor="middle" x="47" y="-159.5" font-family="sans" font-size="10.00">get_pairs</text>
</g>
<!-- 3&#45;&gt;1 -->
<g id="edge3" class="edge">
<title>3&#45;&gt;1</title>
<path fill="none" stroke="grey" stroke-width="2" d="M56.89,-143.7C61.49,-135.64 67.06,-125.89 72.15,-116.98"/>
<polygon fill="grey" stroke="grey" stroke-width="2" points="75.3,-118.52 77.23,-108.1 69.23,-115.05 75.3,-118.52"/>
</g>
<!-- 4 -->
<g id="node5" class="node">
<title>4</title>
<path fill="none" stroke="#d85656" stroke-width="2" stroke-dasharray="5,2" d="M150,-252C150,-252 102,-252 102,-252 96,-252 90,-246 90,-240 90,-240 90,-228 90,-228 90,-222 96,-216 102,-216 102,-216 150,-216 150,-216 156,-216 162,-222 162,-228 162,-228 162,-240 162,-240 162,-246 156,-252 150,-252"/>
<text text-anchor="middle" x="126" y="-231.5" font-family="sans" font-size="10.00">chromsizes</text>
</g>
<!-- 4&#45;&gt;1 -->
<g id="edge4" class="edge">
<title>4&#45;&gt;1</title>
<path fill="none" stroke="grey" stroke-width="2" d="M121.3,-215.87C114.62,-191.56 102.33,-146.82 94.42,-118.01"/>
<polygon fill="grey" stroke="grey" stroke-width="2" points="97.74,-116.91 91.72,-108.19 90.99,-118.76 97.74,-116.91"/>
</g>
<!-- 4&#45;&gt;2 -->
<g id="edge6" class="edge">
<title>4&#45;&gt;2</title>
<path fill="none" stroke="grey" stroke-width="2" d="M130.46,-215.87C136.8,-191.56 148.46,-146.82 155.96,-118.01"/>
<polygon fill="grey" stroke="grey" stroke-width="2" points="159.39,-118.75 158.52,-108.19 152.61,-116.98 159.39,-118.75"/>
</g>
<!-- 4&#45;&gt;3 -->
<g id="edge8" class="edge">
<title>4&#45;&gt;3</title>
<path fill="none" stroke="grey" stroke-width="2" d="M106.47,-215.7C96.62,-206.97 84.51,-196.24 73.8,-186.75"/>
<polygon fill="grey" stroke="grey" stroke-width="2" points="76.11,-184.12 66.3,-180.1 71.47,-189.36 76.11,-184.12"/>
</g>
<!-- 5 -->
<g id="node6" class="node">
<title>5</title>
<path fill="none" stroke="#afd856" stroke-width="2" stroke-dasharray="5,2" d="M222,-180C222,-180 184,-180 184,-180 178,-180 172,-174 172,-168 172,-168 172,-156 172,-156 172,-150 178,-144 184,-144 184,-144 222,-144 222,-144 228,-144 234,-150 234,-156 234,-156 234,-168 234,-168 234,-174 228,-180 222,-180"/>
<text text-anchor="middle" x="203" y="-159.5" font-family="sans" font-size="10.00">get_pairs</text>
</g>
<!-- 4&#45;&gt;5 -->
<g id="edge10" class="edge">
<title>4&#45;&gt;5</title>
<path fill="none" stroke="grey" stroke-width="2" d="M145.03,-215.7C154.54,-207.05 166.21,-196.45 176.57,-187.03"/>
<polygon fill="grey" stroke="grey" stroke-width="2" points="179.14,-189.42 184.19,-180.1 174.43,-184.24 179.14,-189.42"/>
</g>
<!-- 5&#45;&gt;2 -->
<g id="edge5" class="edge">
<title>5&#45;&gt;2</title>
<path fill="none" stroke="grey" stroke-width="2" d="M193.11,-143.7C188.51,-135.64 182.94,-125.89 177.85,-116.98"/>
<polygon fill="grey" stroke="grey" stroke-width="2" points="180.77,-115.05 172.77,-108.1 174.7,-118.52 180.77,-115.05"/>
</g>
<!-- 6 -->
<g id="node7" class="node">
<title>6</title>
<path fill="none" stroke="#56d8a9" stroke-width="2" stroke-dasharray="5,2" d="M60,-252C60,-252 12,-252 12,-252 6,-252 0,-246 0,-240 0,-240 0,-228 0,-228 0,-222 6,-216 12,-216 12,-216 60,-216 60,-216 66,-216 72,-222 72,-228 72,-228 72,-240 72,-240 72,-246 66,-252 60,-252"/>
<text text-anchor="middle" x="36" y="-237" font-family="sans" font-size="10.00">align</text>
<text text-anchor="middle" x="36" y="-226" font-family="sans" font-size="10.00">sample: G1</text>
</g>
<!-- 6&#45;&gt;3 -->
<g id="edge7" class="edge">
<title>6&#45;&gt;3</title>
<path fill="none" stroke="grey" stroke-width="2" d="M38.72,-215.7C39.93,-207.98 41.39,-198.71 42.74,-190.11"/>
<polygon fill="grey" stroke="grey" stroke-width="2" points="46.22,-190.53 44.31,-180.1 39.3,-189.44 46.22,-190.53"/>
</g>
<!-- 7 -->
<g id="node8" class="node">
<title>7</title>
<path fill="none" stroke="#56d8a9" stroke-width="2" stroke-dasharray="5,2" d="M235.5,-252C235.5,-252 192.5,-252 192.5,-252 186.5,-252 180.5,-246 180.5,-240 180.5,-240 180.5,-228 180.5,-228 180.5,-222 186.5,-216 192.5,-216 192.5,-216 235.5,-216 235.5,-216 241.5,-216 247.5,-222 247.5,-228 247.5,-228 247.5,-240 247.5,-240 247.5,-246 241.5,-252 235.5,-252"/>
<text text-anchor="middle" x="214" y="-237" font-family="sans" font-size="10.00">align</text>
<text text-anchor="middle" x="214" y="-226" font-family="sans" font-size="10.00">sample: M</text>
</g>
<!-- 7&#45;&gt;5 -->
<g id="edge9" class="edge">
<title>7&#45;&gt;5</title>
<path fill="none" stroke="grey" stroke-width="2" d="M211.28,-215.7C210.07,-207.98 208.61,-198.71 207.26,-190.11"/>
<polygon fill="grey" stroke="grey" stroke-width="2" points="210.7,-189.44 205.69,-180.1 203.78,-190.53 210.7,-189.44"/>
</g>
<!-- 8 -->
<g id="node9" class="node">
<title>8</title>
<path fill="none" stroke="#59d856" stroke-width="2" stroke-dasharray="5,2" d="M140,-324C140,-324 110,-324 110,-324 104,-324 98,-318 98,-312 98,-312 98,-300 98,-300 98,-294 104,-288 110,-288 110,-288 140,-288 140,-288 146,-288 152,-294 152,-300 152,-300 152,-312 152,-312 152,-318 146,-324 140,-324"/>
<text text-anchor="middle" x="125" y="-303.5" font-family="sans" font-size="10.00">index</text>
</g>
<!-- 8&#45;&gt;6 -->
<g id="edge11" class="edge">
<title>8&#45;&gt;6</title>
<path fill="none" stroke="grey" stroke-width="2" d="M103,-287.7C91.79,-278.88 78,-268.03 65.85,-258.47"/>
<polygon fill="grey" stroke="grey" stroke-width="2" points="67.77,-255.54 57.75,-252.1 63.44,-261.04 67.77,-255.54"/>
</g>
<!-- 8&#45;&gt;7 -->
<g id="edge12" class="edge">
<title>8&#45;&gt;7</title>
<path fill="none" stroke="grey" stroke-width="2" d="M147,-287.7C158.21,-278.88 172,-268.03 184.15,-258.47"/>
<polygon fill="grey" stroke="grey" stroke-width="2" points="186.56,-261.04 192.25,-252.1 182.23,-255.54 186.56,-261.04"/>
</g>
</g>
</svg>
