<?xml version="1.0" encoding="UTF-8" standalone="no"?>
<!DOCTYPE svg PUBLIC "-//W3C//DTD SVG 1.1//EN"
 "http://www.w3.org/Graphics/SVG/1.1/DTD/svg11.dtd">
<!-- Generated by graphviz version 2.42.3 (20191010.1750)
 -->
<!-- Title: snakemake_dag Pages: 1 -->
<svg width="152pt" height="332pt"
 viewBox="0.00 0.00 152.00 332.00" xmlns="http://www.w3.org/2000/svg" xmlns:xlink="http://www.w3.org/1999/xlink">
<g id="graph0" class="graph" transform="scale(1 1) rotate(0) translate(4 328)">
<title>snakemake_dag</title>
<polygon fill="white" stroke="transparent" points="-4,4 -4,-328 148,-328 148,4 -4,4"/>
<!-- 0 -->
<g id="node1" class="node">
<title>0</title>
<path fill="none" stroke="#afd856" stroke-width="2" d="M80,-36C80,-36 50,-36 50,-36 44,-36 38,-30 38,-24 38,-24 38,-12 38,-12 38,-6 44,0 50,0 50,0 80,0 80,0 86,0 92,-6 92,-12 92,-12 92,-24 92,-24 92,-30 86,-36 80,-36"/>
<text text-anchor="middle" x="65" y="-15.5" font-family="sans" font-size="10.00">all</text>
</g>
<!-- 1 -->
<g id="node2" class="node">
<title>1</title>
<path fill="none" stroke="#56a9d8" stroke-width="2" d="M82,-108C82,-108 48,-108 48,-108 42,-108 36,-102 36,-96 36,-96 36,-84 36,-84 36,-78 42,-72 48,-72 48,-72 82,-72 82,-72 88,-72 94,-78 94,-84 94,-84 94,-96 94,-96 94,-102 88,-108 82,-108"/>
<text text-anchor="middle" x="65" y="-87.5" font-family="sans" font-size="10.00">get_cool</text>
</g>
<!-- 1&#45;&gt;0 -->
<g id="edge1" class="edge">
<title>1&#45;&gt;0</title>
<path fill="none" stroke="grey" stroke-width="2" d="M65,-71.7C65,-63.98 65,-54.71 65,-46.11"/>
<polygon fill="grey" stroke="grey" stroke-width="2" points="68.5,-46.1 65,-36.1 61.5,-46.1 68.5,-46.1"/>
</g>
<!-- 2 -->
<g id="node3" class="node">
<title>2</title>
<path fill="none" stroke="#d8ac56" stroke-width="2" d="M114,-180C114,-180 76,-180 76,-180 70,-180 64,-174 64,-168 64,-168 64,-156 64,-156 64,-150 70,-144 76,-144 76,-144 114,-144 114,-144 120,-144 126,-150 126,-156 126,-156 126,-168 126,-168 126,-174 120,-180 114,-180"/>
<text text-anchor="middle" x="95" y="-159.5" font-family="sans" font-size="10.00">get_pairs</text>
</g>
<!-- 2&#45;&gt;1 -->
<g id="edge3" class="edge">
<title>2&#45;&gt;1</title>
<path fill="none" stroke="grey" stroke-width="2" d="M87.58,-143.7C84.21,-135.81 80.13,-126.3 76.38,-117.55"/>
<polygon fill="grey" stroke="grey" stroke-width="2" points="79.49,-115.92 72.33,-108.1 73.05,-118.67 79.49,-115.92"/>
</g>
<!-- 3 -->
<g id="node4" class="node">
<title>3</title>
<path fill="none" stroke="#d85656" stroke-width="2" d="M60,-252C60,-252 12,-252 12,-252 6,-252 0,-246 0,-240 0,-240 0,-228 0,-228 0,-222 6,-216 12,-216 12,-216 60,-216 60,-216 66,-216 72,-222 72,-228 72,-228 72,-240 72,-240 72,-246 66,-252 60,-252"/>
<text text-anchor="middle" x="36" y="-231.5" font-family="sans" font-size="10.00">chromsizes</text>
</g>
<!-- 3&#45;&gt;1 -->
<g id="edge2" class="edge">
<title>3&#45;&gt;1</title>
<path fill="none" stroke="grey" stroke-width="2" d="M39.5,-215.87C44.46,-191.56 53.6,-146.82 59.48,-118.01"/>
<polygon fill="grey" stroke="grey" stroke-width="2" points="62.92,-118.69 61.49,-108.19 56.06,-117.29 62.92,-118.69"/>
</g>
<!-- 3&#45;&gt;2 -->
<g id="edge5" class="edge">
<title>3&#45;&gt;2</title>
<path fill="none" stroke="grey" stroke-width="2" d="M50.58,-215.7C57.66,-207.3 66.28,-197.07 74.05,-187.86"/>
<polygon fill="grey" stroke="grey" stroke-width="2" points="76.81,-190.01 80.58,-180.1 71.46,-185.49 76.81,-190.01"/>
</g>
<!-- 4 -->
<g id="node5" class="node">
<title>4</title>
<path fill="none" stroke="#59d856" stroke-width="2" d="M132,-252C132,-252 102,-252 102,-252 96,-252 90,-246 90,-240 90,-240 90,-228 90,-228 90,-222 96,-216 102,-216 102,-216 132,-216 132,-216 138,-216 144,-222 144,-228 144,-228 144,-240 144,-240 144,-246 138,-252 132,-252"/>
<text text-anchor="middle" x="117" y="-231.5" font-family="sans" font-size="10.00">align</text>
</g>
<!-- 4&#45;&gt;2 -->
<g id="edge4" class="edge">
<title>4&#45;&gt;2</title>
<path fill="none" stroke="grey" stroke-width="2" d="M111.56,-215.7C109.11,-207.9 106.16,-198.51 103.43,-189.83"/>
<polygon fill="grey" stroke="grey" stroke-width="2" points="106.71,-188.59 100.38,-180.1 100.04,-190.69 106.71,-188.59"/>
</g>
<!-- 5 -->
<g id="node6" class="node">
<title>5</title>
<path fill="none" stroke="#56d8a9" stroke-width="2" d="M132,-324C132,-324 102,-324 102,-324 96,-324 90,-318 90,-312 90,-312 90,-300 90,-300 90,-294 96,-288 102,-288 102,-288 132,-288 132,-288 138,-288 144,-294 144,-300 144,-300 144,-312 144,-312 144,-318 138,-324 132,-324"/>
<text text-anchor="middle" x="117" y="-303.5" font-family="sans" font-size="10.00">index</text>
</g>
<!-- 5&#45;&gt;4 -->
<g id="edge6" class="edge">
<title>5&#45;&gt;4</title>
<path fill="none" stroke="grey" stroke-width="2" d="M117,-287.7C117,-279.98 117,-270.71 117,-262.11"/>
<polygon fill="grey" stroke="grey" stroke-width="2" points="120.5,-262.1 117,-252.1 113.5,-262.1 120.5,-262.1"/>
</g>
</g>
</svg>
